# xmcd
#
# Track frame offsets: 
#        150
#        13905
#        25860
#        41262
#        56157
#        69050
#        82862
#        98295
#        111997
#        125652
#        138487
#        157057
#        171255
#        188830
#        201827
#
# Disc length: 2867 seconds
#
# Revision: 0
# Processed by: cddbd v1.5.2PL0 Copyright (c) Steve Scherf et al.
# Submitted via: ExactAudioCopy v0.95b3
#
DISCID=c40b310f
DTITLE=Joe T. Cook - It Ain't So Easy
DYEAR=1995
DGENRE=Blues
TTITLE0=Part Time Candy
TTITLE1=Hot Little Mama
TTITLE2=One More Mile
TTITLE3=End Of The Line
TTITLE4=Long Leany Mama
TTITLE5=A Dangerous Place
TTITLE6=Winter Time Blues
TTITLE7=Way Past Midnight
TTITLE8=Crazy, Crazy Blues
TTITLE9=Little By Little
TTITLE10=Good Time Girl
TTITLE11=It Ain't So Easy
TTITLE12=Hands Off My Bar-B-Que
TTITLE13=I'm Gonna Hit That Highway
TTITLE14=All Night Long
EXTD=
EXTT0=
EXTT1=
EXTT2=
EXTT3=
EXTT4=
EXTT5=
EXTT6=
EXTT7=
EXTT8=
EXTT9=
EXTT10=
EXTT11=
EXTT12=
EXTT13=
EXTT14=
PLAYORDER=
